
          <svg data-logo="logo" xmlns="http://www.w3.org/2000/svg" viewBox="0 0 215 43">
            <g id="logogram" transform="translate(0, 1) rotate(0)"><path fill-rule="evenodd" clip-rule="evenodd" d="M20.543 40.7827C31.5887 40.7827 40.543 31.8284 40.543 20.7827C40.543 9.73702 31.5887 0.782715 20.543 0.782715C9.49726 0.782715 0.542969 9.73702 0.542969 20.7827C0.542969 31.8284 9.49726 40.7827 20.543 40.7827ZM26.7823 10.0996C27.086 9.02076 26.0391 8.38284 25.083 9.06401L11.7361 18.5723C10.6992 19.311 10.8623 20.7827 11.9811 20.7827H15.4957V20.7555H22.3455L16.7642 22.7248L14.3037 31.4659C14 32.5447 15.0468 33.1826 16.003 32.5014L29.3499 22.9932C30.3868 22.2545 30.2236 20.7827 29.1049 20.7827H23.7751L26.7823 10.0996Z" fill="#F15757"/></g>
            <g id="logotype" transform="translate(47, 6)"><path fill="#dd5a5a" d="M21.86 25.48L17.88 20.25L22.34 20.25L24.70 23.27L26.80 25.74L31.05 31.12L26.18 31.12L23.28 27.50L21.86 25.48ZM19.48 29.34L19.48 29.34Q16.12 29.34 13.43 27.80Q10.73 26.27 9.17 23.34Q7.61 20.42 7.61 16.29L7.61 16.29Q7.61 12.13 9.17 9.20Q10.73 6.27 13.43 4.73Q16.12 3.19 19.48 3.19L19.48 3.19Q22.87 3.19 25.55 4.73Q28.23 6.27 29.80 9.20Q31.36 12.13 31.36 16.29L31.36 16.29Q31.36 20.42 29.80 23.34Q28.23 26.27 25.55 27.80Q22.87 29.34 19.48 29.34ZM19.48 24.71L19.48 24.71Q21.47 24.71 22.94 23.74Q24.42 22.78 25.24 20.89Q26.06 19.00 26.06 16.29L26.06 16.29Q26.06 13.53 25.24 11.65Q24.42 9.76 22.94 8.79Q21.47 7.83 19.48 7.83L19.48 7.83Q17.52 7.83 16.03 8.80Q14.54 9.77 13.72 11.66Q12.90 13.55 12.90 16.29L12.90 16.29Q12.90 19.00 13.72 20.88Q14.54 22.76 16.03 23.74Q17.52 24.71 19.48 24.71ZM39.68 29.24L39.68 29.24Q37.70 29.24 36.21 28.38Q34.73 27.51 33.91 25.90Q33.10 24.28 33.10 22.04L33.10 22.04L33.10 9.89L38.23 9.89L38.23 21.16Q38.23 22.93 39.15 23.94Q40.08 24.95 41.68 24.95L41.68 24.95Q42.78 24.95 43.61 24.48Q44.45 24.01 44.92 23.11Q45.39 22.22 45.39 20.95L45.39 20.95L45.39 9.89L50.52 9.89L50.52 29L45.68 29L45.61 24.23L45.90 24.23Q45.15 26.64 43.60 27.94Q42.06 29.24 39.68 29.24ZM57.74 29L52.62 29L52.62 9.89L57.74 9.89L57.74 29ZM55.18 7.40L55.18 7.40Q54.02 7.40 53.20 6.63Q52.38 5.86 52.38 4.77L52.38 4.77Q52.38 3.67 53.20 2.90Q54.02 2.13 55.18 2.13L55.18 2.13Q56.34 2.13 57.17 2.90Q58.00 3.66 58.00 4.77L58.00 4.77Q58.00 5.86 57.17 6.63Q56.34 7.40 55.18 7.40ZM68.37 29.38L68.37 29.38Q65.48 29.38 63.39 28.14Q61.30 26.90 60.16 24.68Q59.02 22.47 59.02 19.53L59.02 19.53Q59.02 16.56 60.16 14.35Q61.30 12.13 63.39 10.89Q65.48 9.65 68.37 9.65L68.37 9.65Q70.06 9.65 71.50 10.10Q72.93 10.54 74.05 11.36Q75.16 12.18 75.87 13.36Q76.59 14.54 76.87 16.01L76.87 16.01L72.10 16.90Q71.94 16.15 71.62 15.56Q71.29 14.97 70.83 14.55Q70.37 14.13 69.76 13.91Q69.16 13.69 68.42 13.69L68.42 13.69Q67.06 13.69 66.12 14.42Q65.19 15.16 64.72 16.47Q64.25 17.79 64.25 19.52L64.25 19.52Q64.25 21.22 64.72 22.53Q65.19 23.84 66.12 24.59Q67.06 25.34 68.42 25.34L68.42 25.34Q69.16 25.34 69.77 25.11Q70.39 24.88 70.87 24.45Q71.35 24.01 71.67 23.39Q71.99 22.78 72.13 22.01L72.13 22.01L76.90 22.88Q76.63 24.40 75.91 25.59Q75.19 26.78 74.08 27.63Q72.97 28.49 71.52 28.93Q70.08 29.38 68.37 29.38ZM86.28 19.48L82.79 23.41L82.79 17.24L83.56 17.24L89.82 9.89L95.75 9.89L87.49 19.48L86.28 19.48ZM83.27 29L78.15 29L78.15 3.54L83.27 3.54L83.27 29ZM96.11 29L90.07 29L84.33 20.63L87.77 16.99L96.11 29ZM107.42 29.34L107.42 29.34Q104.03 29.34 101.36 27.80Q98.69 26.27 97.14 23.34Q95.59 20.42 95.59 16.29L95.59 16.29Q95.59 12.13 97.15 9.20Q98.70 6.27 101.39 4.73Q104.07 3.19 107.42 3.19L107.42 3.19Q109.59 3.19 111.46 3.80Q113.33 4.41 114.78 5.57Q116.24 6.73 117.16 8.42Q118.08 10.10 118.37 12.23L118.37 12.23L113.09 12.23Q112.92 11.19 112.43 10.38Q111.95 9.57 111.22 9.00Q110.49 8.42 109.55 8.12Q108.61 7.83 107.52 7.83L107.52 7.83Q105.54 7.83 104.03 8.82Q102.53 9.81 101.71 11.70Q100.89 13.58 100.89 16.29L100.89 16.29Q100.89 19.04 101.73 20.92Q102.56 22.80 104.05 23.75Q105.54 24.71 107.50 24.71L107.50 24.71Q108.60 24.71 109.53 24.41Q110.46 24.11 111.20 23.54Q111.95 22.97 112.43 22.15Q112.92 21.33 113.11 20.30L113.11 20.30L118.39 20.30Q118.18 22.06 117.34 23.69Q116.49 25.31 115.09 26.59Q113.69 27.87 111.76 28.61Q109.83 29.34 107.42 29.34ZM124.92 17.94L124.92 17.94L124.92 29L119.79 29L119.79 3.54L124.81 3.54L124.81 14.66L124.40 14.66Q125.16 12.27 126.68 10.96Q128.21 9.65 130.64 9.65L130.64 9.65Q132.62 9.65 134.10 10.52Q135.58 11.38 136.39 13.00Q137.20 14.61 137.20 16.85L137.20 16.85L137.20 29L132.08 29L132.08 17.74Q132.08 15.96 131.16 14.95Q130.25 13.94 128.62 13.94L128.62 13.94Q127.55 13.94 126.70 14.41Q125.86 14.88 125.39 15.77Q124.92 16.66 124.92 17.94ZM144.64 29.38L144.64 29.38Q142.82 29.38 141.38 28.74Q139.94 28.09 139.11 26.82Q138.28 25.55 138.28 23.65L138.28 23.65Q138.28 22.06 138.87 20.98Q139.46 19.91 140.47 19.26Q141.49 18.61 142.78 18.27Q144.07 17.93 145.49 17.79L145.49 17.79Q147.15 17.62 148.16 17.47Q149.18 17.33 149.65 17.01Q150.12 16.70 150.12 16.08L150.12 16.08L150.12 15.99Q150.12 15.17 149.78 14.61Q149.44 14.05 148.77 13.75Q148.10 13.45 147.13 13.45L147.13 13.45Q146.14 13.45 145.40 13.75Q144.67 14.05 144.21 14.54Q143.75 15.04 143.52 15.65L143.52 15.65L138.82 14.87Q139.32 13.21 140.47 12.05Q141.61 10.88 143.31 10.27Q145.01 9.65 147.13 9.65L147.13 9.65Q148.69 9.65 150.14 10.02Q151.59 10.39 152.74 11.16Q153.90 11.93 154.57 13.16Q155.25 14.39 155.25 16.13L155.25 16.13L155.25 29L150.39 29L150.39 26.35L150.22 26.35Q149.76 27.24 148.99 27.91Q148.22 28.59 147.14 28.98Q146.05 29.38 144.64 29.38ZM146.09 25.77L146.09 25.77Q147.30 25.77 148.22 25.29Q149.13 24.81 149.64 23.99Q150.16 23.17 150.16 22.16L150.16 22.16L150.16 20.10Q149.93 20.27 149.47 20.40Q149.01 20.54 148.45 20.64Q147.88 20.75 147.34 20.83Q146.79 20.92 146.36 20.97L146.36 20.97Q145.42 21.10 144.70 21.41Q143.99 21.72 143.59 22.22Q143.20 22.73 143.20 23.51L143.20 23.51Q143.20 24.25 143.58 24.75Q143.95 25.26 144.59 25.51Q145.23 25.77 146.09 25.77ZM155.50 9.89L166.83 9.89L166.83 13.81L155.50 13.81L155.50 9.89ZM158.13 23.86L158.13 5.35L163.26 5.35L163.26 23.41Q163.26 24.32 163.66 24.75Q164.06 25.19 165.00 25.19L165.00 25.19Q165.30 25.19 165.82 25.11Q166.35 25.04 166.63 24.97L166.63 24.97L167.36 28.81Q166.51 29.07 165.66 29.17Q164.82 29.27 164.05 29.27L164.05 29.27Q161.18 29.27 159.66 27.87Q158.13 26.47 158.13 23.86L158.13 23.86Z"/></g>
            
          </svg>
        